<?xml version="1.0" encoding="utf-8"?>
<!-- Generator: Adobe Illustrator 23.0.1, SVG Export Plug-In . SVG Version: 6.00 Build 0)  -->
<svg version="1.1" id="Layer_1" xmlns="http://www.w3.org/2000/svg" xmlns:xlink="http://www.w3.org/1999/xlink" x="0px" y="0px"
	 viewBox="0 0 1000 520" style="enable-background:new 0 0 1000 520;" xml:space="preserve">
<style type="text/css">
	.st0{fill-rule:evenodd;clip-rule:evenodd;fill:#2594CB;}
	.st1{fill:#FFFFFF;}
</style>
<g>
	<path class="st0" d="M244.99,75.36c-73.79,5.63-138.11,56.1-161.54,126.62C76.46,222.93,75,233.3,75,260
		c0,20.95,0.34,25.8,2.48,36.05c16.56,76.49,74.01,132.7,149.82,146.67c15.55,2.82,43.82,3.38,58.24,1.01
		c28.28-4.39,54.52-14.64,77.73-30.3c11.04-7.43,26.7-20.84,32.22-27.6l3.38-4.17h-4.84c-4.39,0-5.52,0.56-10.48,5.75
		c-3.15,3.15-9.69,8.9-14.64,12.84c-70.52,55.31-172.02,48.89-235.44-14.76c-47.54-47.76-63.76-117.16-42.69-182.38
		c1.58-4.96,5.97-15.1,9.58-22.53c35.26-71.31,114.45-110.28,193.08-95.19c34.13,6.65,67.59,24.22,90.12,47.2
		c5.07,5.18,5.97,5.75,10.59,5.75h5.07l-8.34-8.56C352.68,91.02,299.29,71.08,244.99,75.36z"/>
	<path class="st0" d="M241.83,97.78c-73.11,8.45-131.58,64.21-143.29,136.87c-2.14,12.95-2.14,37.74,0,50.69
		c11.04,68.04,61.51,120.31,130.11,134.73c15.32,3.15,42.69,3.49,58.24,0.68c30.64-5.63,60.38-20.16,81.67-40.22l8.56-7.89h247.15
		c171.45,0,249.18-0.34,253.91-1.24c22.3-4.06,40.1-21.63,44.95-44.38c2.48-11.6,2.48-122.45,0-134.05
		c-4.84-22.76-22.64-40.33-44.95-44.38c-4.73-0.9-82.46-1.24-253.91-1.24H377.13l-8.56-7.89c-21.18-19.94-51.48-34.81-81-39.99
		C275.07,97.22,253.32,96.54,241.83,97.78z M229.78,145.54c0,0.9-0.56,2.03-1.24,2.48c-2.25,1.35-0.23,8.11,5.07,17.35
		c2.82,4.84,5.75,11.15,6.53,14.08c1.35,4.84,1.24,5.63-1.35,10.48c-3.94,7.21-5.75,7.43-5.52,0.56c0.23-5.75-0.9-8.56-7.66-19.71
		c-6.53-10.59-7.1-18.36-1.92-23.99C226.51,143.63,229.78,143.07,229.78,145.54z M192.04,161.09c-1.46,6.42-0.68,9.01,5.29,19.38
		c4.39,7.66,5.97,11.49,6.31,16c0.45,5.52,0.23,6.08-3.72,10.14l-4.17,4.39l0.68-5.29c0.56-4.84,0-6.42-6.08-18.36
		c-6.87-13.52-8.11-18.47-5.52-23.43c2.03-3.83,4.62-6.42,6.42-6.42C192.49,157.48,192.72,158.27,192.04,161.09z M268.65,159.96
		c-2.48,7.66-2.03,9.58,4.06,20.05c7.1,12.28,8.34,19.49,4.51,25.57c-1.35,2.03-3.15,3.72-4.17,3.72c-1.46,0-1.69-0.79-1.01-4.39
		c0.68-3.94,0-5.86-6.2-17.69c-6.2-11.83-6.98-13.86-6.42-18.25c0.34-3.38,1.58-5.97,3.72-8.22
		C266.96,156.7,269.88,156.36,268.65,159.96z M263.69,223.38c31.88,4.73,48.1,9.91,57.34,18.14c5.52,5.07,5.63,5.29,5.63,11.72v6.65
		l6.42-2.93c8.56-3.94,20.61-4.73,26.25-1.8c6.31,3.27,8.11,8,7.55,20.28c-0.45,9.69-0.9,11.26-5.75,21.29
		c-2.82,5.97-6.87,12.95-8.79,15.43c-4.17,5.18-10.39,10.93-16,10.93c-5.6,0-11.38-3.94-16.22-8.34c-2.37-2.25-5.18-4.06-6.2-4.06
		c-0.9,0-3.83,2.7-6.53,5.86c-2.59,3.27-8.11,9.35-12.17,13.52c-4.06,4.17-7.1,7.77-6.76,8c0.23,0.23,5.75,1.8,12.28,3.38
		c12.28,3.27,18.02,6.2,20.5,10.7c1.24,2.48,1.13,3.04-1.58,5.29c-3.72,3.15-12.39,6.53-23.54,9.01
		c-10.7,2.48-87.75,3.83-102.51,1.8c-9.69-1.35-25.12-5.07-28.05-6.87c-3.72-2.25,0.56-2.48,12.05-0.45
		c17.01,3.04,74.46,3.04,90.12,0.11c11.49-2.14,29.99-6.8,27.82-10.59c-2.16-3.79-7.45-7.04-9.4-7.55
		c-2.83-0.73-6.06,0.3-11.66,3.04c-10.7,5.41-20.39,7.55-33.46,7.55c-17.57,0-28.73-3.6-43.37-14.08
		c-15.55-11.04-34.36-36.61-34.36-46.75c0-2.37,0.68-1.8,3.83,3.38c17.91,29.06,38.41,42.81,63.99,42.81
		c27.71,0,54.41-21.63,68.6-55.76c2.48-5.97,4.28-11.15,4.06-11.38c-0.34-0.34-3.49,0.23-7.1,1.13
		c-17.01,4.39-28.84,5.63-55.09,5.52c-28.28,0-42.69-1.8-60.83-7.55c-13.07-4.17-25.35-12.39-22.53-15.1
		c0.34-0.34,4.62,1.01,9.58,2.93c16.78,6.53,24.22,7.55,58.01,7.55c32.78,0,43.26-1.01,58.13-5.75
		c17.01-5.41,23.88-12.73,17.8-19.15c-6.65-7.1-21.52-11.15-56.21-15.1c-11.49-1.35-21.29-2.82-21.85-3.49
		C221.9,221.02,251.52,221.47,263.69,223.38z M269.21,238.14c11.49,2.03,23.09,7.1,24.22,10.59c1.8,5.52-8.34,11.15-25.46,14.19
		c-8.56,1.46-15.21,1.69-34.25,1.24c-29.4-0.9-49.45-4.39-53.73-9.46c-1.35-1.58-1.01-1.69,2.48-1.01
		c6.53,1.35,27.82,2.14,34.36,1.24c5.97-0.68,12.84-4.28,13.86-7.1c0.68-2.25-9.12-5.86-20.05-7.21
		c-5.63-0.68-10.14-1.69-10.14-2.25c0-1.13-1.13-1.01,16.33-2.03C235.19,235.21,256.59,236,269.21,238.14z"/>
	<path class="st1" d="M417.09,157.35h448.06c27.61,0,50,22.39,50,50v105.3c0,27.61-22.39,50-50,50H417.09l0,0c0-2.76,2.24-5,5-5
		h436.8c27.61,0,50-22.39,50-50V212.4c0-27.61-22.39-50-50-50H422.09c-2.76,0-5-2.24-5-5V157.35z"/>
	<path class="st0" d="M331.17,270.36c-4.51,2.37-5.29,3.38-7.66,9.8c-1.35,4.06-2.59,8.9-2.7,10.93c-0.23,4.62,3.6,9.8,9.8,13.52
		c5.75,3.27,7.21,2.93,12.95-3.72c9.8-11.15,11.6-27.49,3.49-31.88C343.44,267.09,336.46,267.77,331.17,270.36z"/>
</g>
<g>
	<path class="st1" d="M520.17,327.9h-50.6v-1.32c8.36-0.11,9.46-2.31,9.46-11.33v-47.74c0-9.24-0.88-11.11-9.46-11.11v-1.32h50.38
		v15.4h-1.32c-1.76-9.79-3.74-12.1-13.2-12.1h-17.71v29.7h14.96c7.48,0,10.23-2.31,10.78-10.67h1.1v24.97h-1.21
		c-0.99-8.25-2.31-11-10.67-11h-14.96v24.64c0,1.32,0,2.53,0.11,3.63c0,0.99,0.11,1.98,0.44,2.64c0.77,1.54,2.31,2.31,5.28,2.31
		h11.33c11.33,0,14.41-3.74,19.47-14.41h1.21L520.17,327.9z"/>
	<path class="st1" d="M577.15,329c-7.7,0-9.68-11.88-10.89-17.6l-4.62-22.11l-16.83,38.61h-8.03l22.33-50.71
		c-1.1-6.05-2.42-18.48-10.67-18.48c-5.17,0-7.15,5.06-7.81,9.35h-1.1c0.11-5.61,2.42-16.5,9.79-16.5c7.26,0,9.9,12.54,11,18.04
		l7.92,38.17c0.99,5.06,2.75,13.97,9.46,13.97c5.06,0,6.82-4.62,7.15-8.91h1.32v1.76C586.39,320.31,584.3,329,577.15,329z"/>
	<path class="st1" d="M637.87,329c-7.7,0-9.68-11.88-10.89-17.6l-4.62-22.11l-16.83,38.61h-8.03l22.33-50.71
		c-1.1-6.05-2.42-18.48-10.67-18.48c-5.17,0-7.15,5.06-7.81,9.35h-1.1c0.11-5.61,2.42-16.5,9.79-16.5c7.26,0,9.9,12.54,11,18.04
		l7.92,38.17c0.99,5.06,2.75,13.97,9.46,13.97c5.06,0,6.82-4.62,7.15-8.91h1.32v1.76C647.11,320.31,645.01,329,637.87,329z"/>
	<path class="st1" d="M705.95,329.55c-6.27,0-8.03-9.9-9.02-14.52c-3.63,8.03-8.69,14.63-18.26,14.63
		c-14.74,0-20.68-12.98-20.68-25.96c0-11.55,6.05-26.4,19.58-26.4c10.67,0,14.74,10.12,17.71,18.59l4.4-17.16h7.37
		c-2.64,10.56-5.39,21.23-8.25,31.79c0.88,4.07,1.98,13.31,7.59,13.31c3.85,0,5.61-4.18,6.16-7.37h1.21
		C713.43,321.08,712.11,329.55,705.95,329.55z M678.23,280.49c-10.56,0-11.55,17.27-11.55,24.75c0,7.59,1.54,21.34,11.77,21.34
		c9.57,0,13.64-18.48,15.4-25.74C691.98,293.25,687.8,280.49,678.23,280.49z M683.4,262.67c-2.42,5.28-4.95,10.12-5.39,11.11h-1.65
		l1.54-14.08c0.33-2.97,0.55-5.94,1.43-8.8c1.1-2.86,2.75-4.95,6.05-4.95c1.98,0,3.52,1.1,3.52,3.19
		C688.9,250.79,686.15,256.95,683.4,262.67z"/>
	<path class="st1" d="M743.57,329.55c-12.21,0-19.58-10.78-19.58-22.22c0-14.41,8.91-21.89,21.89-25.74
		c-4.73-5.06-15.95-12.21-15.95-19.8c0-8.03,8.47-10.23,15.07-10.23c5.61,0,17.38,1.87,17.38,9.35c0,2.2-1.65,4.07-3.85,4.07
		c-4.73,0-6.71-10.78-16.5-10.78c-4.18,0-9.35,2.09-9.35,6.93c0,11.77,33.55,17.16,33.55,42.02
		C766.23,315.91,757.43,329.55,743.57,329.55z M747.97,283.68c-11.99,2.2-15.84,11-15.84,22.33c0,7.92,2.97,20.57,13.09,20.57
		c10.01,0,13.2-11.33,13.2-19.58C758.42,296.33,754.46,291.49,747.97,283.68z"/>
	<path class="st1" d="M824.97,329.55c-6.27,0-8.03-9.9-9.02-14.52c-3.63,8.03-8.69,14.63-18.26,14.63
		c-14.74,0-20.68-12.98-20.68-25.96c0-11.55,6.05-26.4,19.58-26.4c10.67,0,14.74,10.12,17.71,18.59l4.4-17.16h7.37
		c-2.64,10.56-5.39,21.23-8.25,31.79c0.88,4.07,1.98,13.31,7.59,13.31c3.85,0,5.61-4.18,6.16-7.37h1.21
		C832.45,321.08,831.13,329.55,824.97,329.55z M797.25,280.49c-10.56,0-11.55,17.27-11.55,24.75c0,7.59,1.54,21.34,11.77,21.34
		c9.57,0,13.64-18.48,15.4-25.74C811,293.25,806.82,280.49,797.25,280.49z"/>
</g>
<g>
	<path class="st1" d="M597.47,203.59c0-5.18,1.41-9.38,4.22-12.58c2.82-3.2,6.74-4.8,11.76-4.8c2.75,0,5.23,0.62,7.44,1.87
		c0.54,0.29,0.94,0.43,1.2,0.43c0.48,0,0.8-0.46,0.96-1.39c0.06-0.26,0.21-0.38,0.43-0.38c0.26,0,0.38,0.1,0.38,0.29
		c0,0.45-0.02,1.06-0.05,1.82v2.78v2.83c0.03,0.74,0.05,1.38,0.05,1.92c0,0.29-0.13,0.43-0.38,0.43c-0.19,0-0.32-0.17-0.38-0.53
		c-0.48-3.04-1.39-5.26-2.74-6.67c-1.73-1.79-4.03-2.69-6.91-2.69c-3.07,0-5.31,1.28-6.72,3.84c-1.38,2.53-2.06,6.93-2.06,13.2
		c0,4.86,0.54,8.67,1.63,11.42c1.22,3.04,3.6,4.56,7.15,4.56c5.41,0,8.51-2.69,9.31-8.06c0.1-0.54,0.22-0.9,0.38-1.08
		c0.16-0.18,0.42-0.26,0.77-0.26c0.64,0,0.96,0.29,0.96,0.86c0,0.67-0.19,1.52-0.58,2.54c-1.82,4.51-5.66,6.77-11.52,6.77
		c-4.9,0-8.67-1.46-11.33-4.39C598.8,213.4,597.47,209.16,597.47,203.59z"/>
	<path class="st1" d="M641.2,216.98c-1.06,2.5-3.04,3.74-5.95,3.74c-2.56,0-4.46-0.58-5.71-1.75s-1.87-2.71-1.87-4.63
		c0-2.4,0.86-4.03,2.59-4.9c1.66-0.9,5.31-1.34,10.94-1.34v-5.42c0-1.7-0.13-2.93-0.38-3.7c-0.51-1.18-1.62-1.78-3.31-1.78
		c-1.47,0-2.58,0.32-3.31,0.96c-0.8,0.67-1.2,2.24-1.2,4.7c0,1.34-0.67,2.02-2.02,2.02c-1.25,0-1.87-0.66-1.87-1.97
		c0-1.92,0.8-3.46,2.4-4.63c1.6-1.17,3.94-1.75,7.01-1.75c4.42,0,7.17,1.12,8.26,3.36c0.51,0.99,0.77,2.42,0.77,4.27
		c0,2.02-0.02,4.29-0.05,6.82c-0.03,2.5-0.05,4.48-0.05,5.95c0,0.93,0.1,1.58,0.31,1.94s0.57,0.55,1.08,0.55s0.99-0.18,1.44-0.53
		c0.29-0.29,0.5-0.43,0.62-0.43c0.22,0,0.34,0.13,0.34,0.38c0,0.22-0.13,0.42-0.38,0.58c-1.09,0.77-2.53,1.15-4.32,1.15
		c-1.76,0-3.03-0.28-3.82-0.84S641.42,218.26,641.2,216.98z M641.25,212.13v-3.36h-0.19c-0.16,0-0.35-0.01-0.58-0.02
		c-0.22-0.02-0.42-0.02-0.58-0.02c-2.18,0-3.63,0.22-4.37,0.67c-1.18,0.67-1.78,2.32-1.78,4.94c0,3.49,0.98,5.23,2.93,5.23
		c1.76,0,3.06-0.94,3.89-2.83C641.02,215.65,641.25,214.12,641.25,212.13z"/>
	<path class="st1" d="M661.89,197.93v18.48c0,1.22,0.11,2.03,0.34,2.45c0.22,0.42,1.25,0.62,3.07,0.62c0.16,0,0.24,0.11,0.24,0.34
		c0,0.19-0.08,0.29-0.24,0.29h-2.98c-1.22-0.03-2.43-0.05-3.65-0.05c-1.02,0-2.08,0.02-3.17,0.05h-2.98c-0.16,0-0.24-0.1-0.24-0.29
		c0-0.22,0.08-0.34,0.24-0.34c1.6,0,2.51-0.21,2.74-0.62c0.19-0.45,0.29-1.26,0.29-2.45v-18.48h-3.26c-0.19,0-0.29-0.11-0.29-0.34
		c0-0.19,0.13-0.29,0.38-0.29c1.38-0.06,2.22-0.3,2.54-0.72c0.45-0.54,0.78-1.66,1.01-3.36c0.8-5.28,4.64-7.92,11.52-7.92
		c2.66,0,4.45,0.58,5.38,1.73c0.83-0.83,1.9-1.49,3.22-1.97c1.31-0.48,2.59-0.72,3.84-0.72c3.78,0,5.66,1.39,5.66,4.18
		c0,1.15-0.61,1.73-1.82,1.73c-1.25,0-1.9-0.61-1.97-1.82c-0.03-1.28-0.23-2.18-0.6-2.69c-0.37-0.51-0.92-0.77-1.66-0.77
		c-0.83,0-1.44,0.27-1.82,0.82c-0.58,0.74-0.86,2.61-0.86,5.62v5.76h4.56c0.19,0,0.29,0.11,0.29,0.34c0,0.29-0.1,0.43-0.29,0.43
		h-4.56v18.48c0,1.22,0.11,2.03,0.34,2.45c0.22,0.42,1.33,0.62,3.31,0.62c0.16,0,0.24,0.11,0.24,0.34c0,0.19-0.08,0.29-0.24,0.29
		h-3.12c-1.25-0.03-2.5-0.05-3.74-0.05c-1.02,0-2.06,0.02-3.12,0.05h-2.88c-0.16,0-0.24-0.1-0.24-0.29c0-0.22,0.08-0.34,0.24-0.34
		c0.93,0,1.55-0.03,1.87-0.1c0.32-0.06,0.54-0.24,0.67-0.53c0.22-0.42,0.34-1.23,0.34-2.45v-18.48H661.89z M661.89,193.65v3.5h6
		c1.09,0,1.76-0.17,2.02-0.53c0.42-0.48,0.7-1.71,0.86-3.7c0.1-1.34,0.26-2.43,0.48-3.26c-0.45-2.5-1.79-3.74-4.03-3.74
		c-1.34,0-2.48,0.35-3.41,1.06c-0.7,0.51-1.2,1.26-1.49,2.23C662.03,190.19,661.89,191.67,661.89,193.65z"/>
	<path class="st1" d="M702.93,208.1H690.4c0,5.09,0.61,8.42,1.82,9.98c0.61,0.7,1.24,1.18,1.9,1.44c0.66,0.26,1.5,0.38,2.52,0.38
		c1.76,0,3.29-0.59,4.58-1.78s2.06-2.66,2.28-4.42c0.1-0.74,0.43-1.1,1.01-1.1c0.54,0,0.82,0.26,0.82,0.77
		c0,0.67-0.16,1.34-0.48,2.02c-0.74,1.6-1.9,2.89-3.5,3.86c-1.6,0.98-3.57,1.46-5.9,1.46c-3.68,0-6.56-1.09-8.64-3.26
		c-2.08-2.18-3.12-4.98-3.12-8.4c0-3.58,1.04-6.56,3.12-8.93c2.11-2.4,5.01-3.6,8.69-3.6c2.98,0,5.35,0.83,7.13,2.5
		c1.78,1.66,2.66,3.94,2.66,6.82c0,0.93-0.16,1.55-0.48,1.87C704.54,207.97,703.92,208.1,702.93,208.1z M690.4,207.38h6.96
		c0.67,0,1.13-0.14,1.37-0.43s0.36-0.82,0.36-1.58c0-3.04-0.26-5.16-0.77-6.36c-0.51-1.2-1.49-1.8-2.93-1.8
		c-1.57,0-2.77,0.71-3.6,2.11C691.02,200.66,690.56,203.35,690.4,207.38z"/>
</g>
</svg>
