<svg xmlns="http://www.w3.org/2000/svg" width="1200" height="533.333" viewBox="0 0 1200 533.333"><defs><clipPath id="a" clipPathUnits="userSpaceOnUse"><path d="M-196.989 12.362h900v-400h-900Z"/></clipPath><clipPath id="b" clipPathUnits="userSpaceOnUse"><path d="M-221.209 175.142h900v-400h-900Z"/></clipPath><clipPath id="c" clipPathUnits="userSpaceOnUse"><path d="M-369.093 94.346h900v-400h-900Z"/></clipPath><clipPath id="d" clipPathUnits="userSpaceOnUse"><path d="M-283.166 207.36h900v-400h-900Z"/></clipPath><clipPath id="e" clipPathUnits="userSpaceOnUse"><path d="M-472.167 267.9h900v-400h-900Z"/></clipPath><clipPath id="f" clipPathUnits="userSpaceOnUse"><path d="M-529.147 268.999h900v-400h-900Z"/></clipPath><clipPath id="g" clipPathUnits="userSpaceOnUse"><path d="M-589.865 268.999h900v-400h-900Z"/></clipPath><clipPath id="h" clipPathUnits="userSpaceOnUse"><path d="M-635.403 202.669h900v-400h-900Z"/></clipPath><clipPath id="i" clipPathUnits="userSpaceOnUse"><path d="M-699.973 223.679h900v-400h-900Z"/></clipPath><clipPath id="j" clipPathUnits="userSpaceOnUse"><path d="M-749.252 220.49h900v-400h-900Z"/></clipPath><clipPath id="k" clipPathUnits="userSpaceOnUse"><path d="M-549.473 143.589h900v-400h-900Z"/></clipPath><clipPath id="l" clipPathUnits="userSpaceOnUse"><path d="M-593.248 152.133h900v-400h-900Z"/></clipPath><clipPath id="m" clipPathUnits="userSpaceOnUse"><path d="M-613.889 133.652h900v-400h-900Z"/></clipPath><clipPath id="n" clipPathUnits="userSpaceOnUse"><path d="M-642.4 147.38h900v-400h-900Z"/></clipPath></defs><path d="M0 0c-73.786-5.633-138.109-56.1-161.54-126.619-6.984-20.953-8.449-31.317-8.449-58.014 0-20.953.338-25.798 2.479-36.049 16.559-76.489 74.01-132.701 149.824-146.67 15.545-2.816 43.821-3.379 58.24-1.013 28.275 4.393 54.523 14.644 77.728 30.303 11.04 7.434 26.698 20.839 32.218 27.599l3.38 4.168h-4.844c-4.393 0-5.52-.563-10.476-5.745-3.155-3.154-9.688-8.899-14.645-12.843-70.519-55.31-172.017-48.889-235.438 14.758-47.539 47.763-63.76 117.155-42.695 182.38 1.577 4.956 5.97 15.095 9.575 22.53C-109.383-33.908-30.19 5.069 48.439-10.026c34.133-6.646 67.59-24.22 90.121-47.201 5.068-5.181 5.97-5.745 10.588-5.745h5.07l-8.336 8.562A184.48 184.48 0 0 1 0 0" clip-path="url(#a)" style="fill:#2394cb;fill-opacity:1;fill-rule:evenodd;stroke:none" transform="matrix(1.33333 0 0 -1.33333 262.652 16.483)"/><path d="M0 0c11.49-2.028 23.093-7.097 24.22-10.589 1.802-5.52-8.336-11.153-25.459-14.194-8.562-1.464-15.208-1.69-34.246-1.239-29.401.901-49.453 4.393-53.734 9.462-1.352 1.578-1.013 1.69 2.479 1.014 6.533-1.351 27.824-2.14 34.358-1.239 5.97.676 12.842 4.281 13.856 7.097.675 2.253-9.125 5.858-20.052 7.209-5.632.677-10.138 1.69-10.138 2.254 0 1.126-1.127 1.014 16.334 2.027C-34.021 2.929-12.617 2.14 0 0m-5.52 14.757c31.88-4.731 48.102-9.913 57.339-18.136 5.52-5.07 5.633-5.295 5.633-11.716v-6.647l6.421 2.93c8.561 3.942 20.614 4.731 26.247 1.802 6.308-3.267 8.11-7.998 7.547-20.277-.45-9.688-.901-11.265-5.745-21.291-2.816-5.971-6.871-12.955-8.786-15.433-4.168-5.182-10.393-10.927-15.997-10.927s-11.377 3.943-16.221 8.336c-2.366 2.253-5.182 4.055-6.196 4.055-.901 0-3.83-2.703-6.534-5.857-2.591-3.267-8.11-9.35-12.166-13.519-4.055-4.168-7.097-7.772-6.759-7.998.225-.225 5.745-1.802 12.279-3.379 12.279-3.266 18.024-6.196 20.502-10.702 1.239-2.478 1.127-3.041-1.577-5.294-3.717-3.154-12.391-6.534-23.544-9.013-10.701-2.477-87.754-3.83-102.511-1.801-9.688 1.351-25.121 5.069-28.05 6.871-3.717 2.253.563 2.478 12.054.451 17.01-3.042 74.461-3.042 90.12-.113 11.49 2.14 29.988 6.795 27.824 10.589s-7.453 7.041-9.401 7.545c-2.828.732-6.062-.304-11.665-3.039-10.701-5.407-20.389-7.548-33.457-7.548-17.573 0-28.725 3.605-43.37 14.082-15.546 11.04-34.358 36.611-34.358 46.75 0 2.365.676 1.802 3.83-3.38 17.912-29.064 38.414-42.807 63.985-42.807 27.712 0 54.41 21.629 68.604 55.762 2.478 5.97 4.281 11.152 4.055 11.378-.337.338-3.492-.226-7.097-1.127-17.009-4.394-28.838-5.633-55.085-5.52-28.276 0-42.694 1.802-60.831 7.547-13.068 4.169-25.346 12.392-22.53 15.096.338.338 4.618-1.014 9.575-2.929 16.785-6.534 24.22-7.548 58.015-7.548 32.781 0 43.257 1.014 58.127 5.745 17.01 5.408 23.882 12.73 17.799 19.151C25.91 3.943 11.04 7.998-23.657 11.941c-11.49 1.351-21.29 2.816-21.854 3.492-1.802 1.69 27.825 1.239 39.991-.676m4.957 63.422c-2.479-7.66-2.028-9.575 4.055-20.052 7.097-12.278 8.336-19.488 4.506-25.571-1.352-2.028-3.154-3.718-4.168-3.718-1.464 0-1.69.789-1.014 4.394.676 3.942 0 5.857-6.195 17.686-6.196 11.828-6.985 13.855-6.422 18.249.339 3.379 1.577 5.971 3.718 8.224 3.83 4.055 6.759 4.393 5.52.788m-76.602-1.126c-1.465-6.422-.676-9.012 5.294-19.376 4.393-7.66 5.971-11.49 6.308-15.996.451-5.52.226-6.084-3.717-10.139l-4.168-4.394.676 5.295c.564 4.844 0 6.421-6.083 18.362-6.872 13.518-8.111 18.475-5.52 23.431 2.028 3.83 4.619 6.421 6.421 6.421 1.239 0 1.465-.788.789-3.604m37.737 15.545c0-.901-.563-2.028-1.239-2.478-2.252-1.352-.225-8.111 5.07-17.348 2.816-4.844 5.745-11.152 6.534-14.082 1.351-4.843 1.238-5.632-1.353-10.476-3.942-7.21-5.745-7.435-5.52-.563.226 5.745-.9 8.561-7.66 19.714-6.533 10.589-7.096 18.362-1.915 23.994 2.817 3.154 6.083 3.718 6.083 1.239m12.054 47.764c-73.11-8.449-131.575-64.211-143.291-136.87-2.14-12.954-2.14-37.738 0-50.692 11.04-68.041 61.507-120.311 130.111-134.73 15.321-3.154 42.694-3.492 58.24-.675 30.641 5.632 60.38 20.164 81.671 40.215l8.561 7.886h247.155c171.453 0 249.181.338 253.913 1.239 22.305 4.055 40.102 21.629 44.947 44.384 2.478 11.603 2.478 122.451 0 134.053-4.845 22.756-22.642 40.329-44.947 44.385-4.732.901-82.46 1.239-253.913 1.239H107.918l-8.561 7.885c-21.178 19.939-51.481 34.809-80.995 39.991-12.504 2.253-34.246 2.929-45.736 1.69" clip-path="url(#b)" style="fill:#2394cb;fill-opacity:1;fill-rule:evenodd;stroke:none" transform="matrix(1.33333 0 0 -1.33333 294.945 233.522)"/><path d="M0 0h448.061c27.614 0 50-22.386 50-50v-105.299c0-27.615-22.386-50-50-50H0a4.996 4.996 0 0 0 4.997 4.996h436.796c27.615 0 50 22.386 50 50v95.246c0 27.615-22.385 50-50 50H5a5 5 0 0 0-5 5z" clip-path="url(#c)" style="fill:#fff;fill-opacity:1;fill-rule:nonzero;stroke:none" transform="matrix(1.33333 0 0 -1.33333 492.124 125.795)"/><path d="M0 0c-4.506-2.366-5.294-3.38-7.66-9.801-1.352-4.055-2.591-8.899-2.704-10.927-.225-4.619 3.605-9.8 9.801-13.518 5.745-3.267 7.209-2.929 12.955 3.718 9.8 11.152 11.602 27.486 3.492 31.88C12.279 3.267 5.294 2.591 0 0" clip-path="url(#d)" style="fill:#2394cb;fill-opacity:1;fill-rule:evenodd;stroke:none" transform="matrix(1.33333 0 0 -1.33333 377.555 276.48)"/><path d="M0 0h-50.6v1.32c8.359.11 9.46 2.31 9.46 11.33v47.741c0 9.24-.88 11.109-9.46 11.109v1.32H-.22v-15.4h-1.32c-1.76 9.79-3.739 12.101-13.199 12.101h-17.712V39.82h14.962c7.479 0 10.229 2.31 10.779 10.67h1.101V25.521h-1.21c-.991 8.25-2.311 11-10.67 11h-14.962V11.88c0-1.32 0-2.53.111-3.63 0-.99.11-1.979.44-2.64.77-1.54 2.31-2.31 5.279-2.31h11.331C-3.96 3.3-.88 7.04 4.181 17.71h1.21z" clip-path="url(#e)" style="fill:#fff;fill-opacity:1;fill-rule:nonzero;stroke:none" transform="matrix(1.33333 0 0 -1.33333 629.556 357.2)"/><path d="M0 0c-7.7 0-9.681 11.88-10.891 17.6l-4.62 22.11-16.83-38.61h-8.029l22.33 50.71c-1.101 6.05-2.42 18.48-10.67 18.48-5.171 0-7.15-5.061-7.811-9.35h-1.099c.109 5.61 2.42 16.5 9.79 16.5 7.26 0 9.899-12.54 11-18.04l7.92-38.171C-7.92 16.17-6.16 7.26.55 7.26c5.059 0 6.82 4.62 7.15 8.91h1.32v-1.76C9.24 8.689 7.149 0 0 0" clip-path="url(#f)" style="fill:#fff;fill-opacity:1;fill-rule:nonzero;stroke:none" transform="matrix(1.33333 0 0 -1.33333 705.529 358.665)"/><path d="M0 0c-7.7 0-9.681 11.88-10.891 17.6l-4.62 22.11-16.83-38.61h-8.029l22.33 50.71c-1.101 6.05-2.42 18.48-10.67 18.48-5.171 0-7.15-5.061-7.811-9.35h-1.099c.109 5.61 2.42 16.5 9.79 16.5 7.26 0 9.899-12.54 11-18.04l7.92-38.171C-7.92 16.17-6.16 7.26.55 7.26c5.059 0 6.82 4.62 7.15 8.91h1.32v-1.76C9.24 8.689 7.149 0 0 0" clip-path="url(#g)" style="fill:#fff;fill-opacity:1;fill-rule:nonzero;stroke:none" transform="matrix(1.33333 0 0 -1.33333 786.487 358.665)"/><path d="M0 0c-2.42-5.28-4.949-10.12-5.39-11.11h-1.65L-5.5 2.97c.33 2.969.551 5.94 1.431 8.8 1.099 2.86 2.75 4.95 6.049 4.95 1.98 0 3.52-1.1 3.52-3.19C5.5 11.88 2.75 5.72 0 0m-5.17-17.82c-10.559 0-11.55-17.27-11.55-24.75 0-7.59 1.54-21.34 11.771-21.34 9.569 0 13.639 18.479 15.399 25.74C8.58-30.58 4.4-17.82-5.17-17.82m27.721-49.061c-6.271 0-8.03 9.901-9.021 14.521C9.9-60.391 4.841-66.99-4.729-66.99c-14.741 0-20.681 12.979-20.681 25.96 0 11.55 6.051 26.4 19.58 26.4 10.671 0 14.74-10.12 17.711-18.591l4.399 17.16h7.37c-2.639-10.559-5.389-21.229-8.25-31.79.88-4.069 1.981-13.309 7.59-13.309 3.851 0 5.611 4.18 6.16 7.37h1.21c-.33-4.62-1.649-13.091-7.809-13.091" clip-path="url(#h)" style="fill:#fff;fill-opacity:1;fill-rule:nonzero;stroke:none" transform="matrix(1.33333 0 0 -1.33333 847.204 270.225)"/><path d="M0 0c-11.99-2.2-15.84-11.001-15.84-22.331 0-7.92 2.97-20.569 13.09-20.569 10.01 0 13.2 11.33 13.2 19.58C10.45-12.65 6.49-7.811 0 0m-4.4-45.871c-12.21 0-19.58 10.78-19.58 22.221 0 14.41 8.91 21.889 21.89 25.74-4.73 5.059-15.95 12.21-15.95 19.8 0 8.03 8.47 10.23 15.07 10.23 5.61 0 17.38-1.87 17.38-9.35 0-2.201-1.65-4.071-3.849-4.071-4.731 0-6.711 10.78-16.501 10.78-4.18 0-9.35-2.089-9.35-6.929 0-11.771 33.55-17.16 33.55-42.021 0-12.759-8.8-26.4-22.66-26.4" clip-path="url(#i)" style="fill:#fff;fill-opacity:1;fill-rule:nonzero;stroke:none" transform="matrix(1.33333 0 0 -1.33333 933.297 298.238)"/><path d="M0 0c-10.56 0-11.55-17.27-11.55-24.75 0-7.59 1.54-21.34 11.771-21.34 9.569 0 13.639 18.48 15.399 25.74C13.75-12.76 9.57 0 0 0m27.721-49.061c-6.271 0-8.031 9.901-9.021 14.521-3.63-8.03-8.689-14.63-18.26-14.63-14.74 0-20.68 12.98-20.68 25.96 0 11.55 6.051 26.4 19.58 26.4 10.671 0 14.74-10.12 17.711-18.59L21.45 1.76h7.37c-2.639-10.56-5.389-21.23-8.25-31.79.88-4.07 1.981-13.31 7.59-13.31 3.851 0 5.611 4.18 6.16 7.37h1.21c-.33-4.62-1.649-13.091-7.809-13.091" clip-path="url(#j)" style="fill:#fff;fill-opacity:1;fill-rule:nonzero;stroke:none" transform="matrix(1.33333 0 0 -1.33333 999.003 293.986)"/><path d="M0 0q0 7.777 4.224 12.576 4.223 4.8 11.759 4.8 4.128 0 7.441-1.872.815-.432 1.2-.432.72 0 .96 1.392.095.385.432.385.383 0 .383-.288 0-.674-.047-1.825V9.12q.047-1.104.047-1.92 0-.431-.383-.431-.29-.001-.384.527-.722 4.56-2.736 6.673-2.593 2.687-6.913 2.687-4.607 0-6.719-3.84-2.065-3.792-2.065-13.2 0-7.296 1.633-11.424 1.824-4.56 7.151-4.56 8.112 0 9.313 8.064.144.816.384 1.08t.767.264q.96 0 .96-.863 0-1.01-.575-2.545-2.736-6.768-11.52-6.768-7.344 0-11.329 4.392Q-.001-8.351 0 0" clip-path="url(#k)" style="fill:#fff;fill-opacity:1;fill-rule:nonzero;stroke:none" transform="matrix(1.33333 0 0 -1.33333 732.63 191.452)"/><path d="M0 0v3.36h-.191q-.242 0-.577.024a8 8 0 0 1-.576.024q-3.265 0-4.368-.672-1.775-1.008-1.775-4.944 0-5.232 2.927-5.231 2.64 0 3.888 2.832Q0-2.977 0 0m-.048-4.848Q-1.632-8.592-6-8.592q-3.84 0-5.712 1.752t-1.872 4.632q0 3.6 2.593 4.896Q-8.496 4.032-.048 4.032v5.424q0 2.544-.384 3.696-.768 1.776-3.312 1.777-2.208 0-3.312-.961-1.2-1.008-1.2-4.703 0-2.017-2.015-2.017-1.873 0-1.873 1.968 0 2.88 2.4 4.633 2.4 1.751 7.009 1.752 6.623-.001 8.256-3.361.767-1.489.767-4.272 0-3.024-.048-6.816-.048-3.744-.048-5.952 0-1.393.312-1.944.312-.552 1.08-.552t1.44.528q.433.433.624.432.336 0 .336-.384 0-.336-.383-.576Q7.968-8.447 5.28-8.448q-2.64 0-3.816.841-1.176.839-1.512 2.759" clip-path="url(#l)" style="fill:#fff;fill-opacity:1;fill-rule:nonzero;stroke:none" transform="matrix(1.33333 0 0 -1.33333 790.997 202.844)"/><path d="M0 0v-3.504h6q1.63 0 2.016.527.622.72.864 3.697.144 2.015.479 3.263-.672 3.744-4.032 3.745-2.016 0-3.407-1.056Q.864 5.902.432 4.439T0 0m0-4.272v-18.48q0-1.826.336-2.448.336-.624 3.071-.624.24 0 .24-.336 0-.289-.24-.288H.432q-1.825.047-3.649.048-1.536 0-3.168-.048H-9.36q-.241 0-.241.288 0 .335.241.336 2.399 0 2.736.624.287.67.288 2.448v18.48h-3.265q-.287 0-.288.335 0 .29.384.289 2.064.095 2.545.719.67.816 1.008 3.361 1.2 7.92 11.519 7.92 3.985 0 5.376-1.728 1.248 1.247 3.216 1.968 1.97.72 3.841.72 5.663 0 5.664-4.176 0-1.729-1.824-1.728-1.872 0-1.968 1.823-.05 1.92-.601 2.689-.551.768-1.656.768-1.248 0-1.823-.816-.864-1.104-.864-5.616v-5.76h4.559q.289 0 .288-.336 0-.432-.288-.432h-4.559v-18.48q0-1.826.336-2.448.335-.624 3.311-.624.24 0 .24-.336 0-.289-.24-.288h-3.119a151 151 0 0 1-3.744.048q-1.537 0-3.12-.048h-2.88q-.24 0-.24.288 0 .335.24.336 1.392 0 1.872.095a.89.89 0 0 1 .672.529q.335.622.336 2.448v18.48z" clip-path="url(#m)" style="fill:#fff;fill-opacity:1;fill-rule:nonzero;stroke:none" transform="matrix(1.33333 0 0 -1.33333 818.518 178.203)"/><path d="M0 0h6.96q1.008 0 1.368.433.36.431.36 1.584 0 4.56-.768 6.359-.769 1.8-2.928 1.801-2.352 0-3.6-2.113Q.239 6.049 0 0m12.528-.72H0q0-7.632 1.824-9.984.911-1.056 1.896-1.44.983-.384 2.52-.383 2.64 0 4.584 1.775 1.944 1.776 2.28 4.416.144 1.104 1.008 1.105.815 0 .816-.769 0-1.008-.48-2.016-1.105-2.4-3.504-3.864T5.04-13.344q-5.521 0-8.64 3.264t-3.12 8.4q0 5.375 3.12 8.928 3.167 3.6 8.688 3.601 4.463 0 7.128-2.496t2.664-6.817q0-1.393-.48-1.872-.384-.384-1.872-.384" clip-path="url(#n)" style="fill:#fff;fill-opacity:1;fill-rule:nonzero;stroke:none" transform="matrix(1.33333 0 0 -1.33333 856.533 196.508)"/></svg>