<?xml version="1.0" standalone="no"?>
<!DOCTYPE svg PUBLIC "-//W3C//DTD SVG 20010904//EN"
 "http://www.w3.org/TR/2001/REC-SVG-20010904/DTD/svg10.dtd">
<svg version="1.0" xmlns="http://www.w3.org/2000/svg"
 width="1000.000000pt" height="1000.000000pt" viewBox="0 0 1000.000000 1000.000000"
 preserveAspectRatio="xMidYMid meet">

<g transform="translate(0.000000,1000.000000) scale(0.100000,-0.100000)"
fill="#000000" stroke="none">
<path d="M2435 6844 c-750 -78 -1363 -567 -1599 -1275 -59 -176 -76 -276 -83
-499 -6 -215 5 -356 43 -502 114 -453 388 -847 763 -1099 337 -227 709 -332
1121 -316 453 17 904 219 1235 552 l69 70 -39 3 c-43 4 -38 7 -177 -116 -421
-374 -994 -521 -1557 -400 -683 146 -1229 703 -1362 1388 -55 288 -39 606 46
888 34 111 137 326 211 439 482 742 1449 1011 2259 629 168 -79 312 -178 456
-312 73 -68 82 -74 121 -74 l43 1 -111 107 c-269 261 -597 428 -964 493 -111
20 -381 33 -475 23z"/>
<path d="M2425 6619 c-112 -11 -211 -34 -346 -79 -551 -184 -956 -645 -1080
-1230 -19 -89 -23 -136 -23 -310 0 -174 4 -221 23 -310 126 -592 526 -1045
1092 -1233 191 -64 246 -72 514 -72 232 0 244 1 350 29 289 75 520 197 730
385 l90 81 2460 0 c1532 0 2488 4 2535 10 192 25 380 187 441 379 25 79 38
331 38 731 0 400 -13 652 -38 731 -61 192 -249 354 -441 379 -47 6 -1003 10
-2535 10 l-2460 0 -90 81 c-285 254 -608 392 -982 419 -152 11 -163 11 -278
-1z m-130 -481 c-18 -61 -16 -69 45 -191 72 -144 81 -186 52 -243 -11 -22 -28
-46 -36 -53 -19 -16 -23 -8 -29 66 -3 40 -16 73 -55 140 -58 101 -78 163 -68
215 8 43 47 88 77 88 18 0 20 -4 14 -22z m-373 -174 c-3 -55 1 -67 57 -177 78
-151 81 -189 21 -257 l-39 -45 -1 60 c0 52 -8 76 -55 173 -86 177 -90 221 -29
287 37 40 50 28 46 -41z m762 24 c-11 -66 -8 -81 45 -186 62 -122 75 -169 61
-220 -11 -42 -52 -88 -69 -78 -6 4 -8 24 -5 49 5 37 -2 57 -60 175 -37 74 -66
146 -66 163 0 43 23 92 55 117 40 32 48 28 39 -20z m6095 27 c192 -51 340
-212 371 -405 13 -87 13 -1133 0 -1220 -31 -192 -179 -354 -371 -405 -46 -13
-389 -15 -2331 -15 -2258 0 -2278 0 -2278 20 0 10 9 24 19 30 14 7 728 10
2238 10 2421 0 2267 -4 2386 56 116 59 209 168 247 293 19 60 20 93 20 625 0
560 0 561 -23 626 -44 124 -124 219 -234 277 -126 68 52 63 -2396 63 -1510 0
-2224 3 -2238 10 -10 6 -19 20 -19 30 0 20 20 20 2278 20 1942 0 2285 -2 2331
-15z m-1929 -300 c17 -20 8 -50 -15 -50 -13 0 -21 8 -23 23 -4 25 -27 30 -36
6 -3 -9 -6 -33 -6 -55 0 -36 2 -39 28 -40 l27 -2 -27 -4 -28 -4 0 -101 c0 -91
2 -100 20 -105 43 -11 17 -23 -50 -23 -65 0 -90 10 -55 24 12 4 15 26 15 106
l0 100 -40 0 -40 0 0 -101 c0 -92 2 -101 20 -106 11 -3 20 -9 20 -14 0 -12
-220 -10 -242 2 -10 6 -19 5 -23 -1 -3 -5 -24 -10 -46 -10 -46 0 -79 27 -79
65 0 41 33 65 90 65 l50 0 0 38 c0 48 -12 65 -41 60 -16 -2 -25 -12 -31 -35
-6 -24 -14 -33 -29 -33 -17 0 -20 5 -17 32 4 43 37 60 107 55 73 -5 81 -18 81
-132 l0 -91 35 -1 35 -1 0 104 c0 92 -2 104 -17 104 -16 1 -16 1 -2 10 9 5 20
25 23 43 10 56 37 72 123 73 40 1 77 4 80 8 12 12 81 6 93 -9z m-650 -15 c9
-5 19 -5 27 2 10 8 13 -1 13 -46 0 -31 -2 -56 -5 -56 -3 0 -11 15 -18 33 -18
42 -39 58 -78 59 -65 2 -102 -91 -84 -209 12 -83 29 -103 86 -103 39 0 61 18
78 63 6 15 15 27 21 27 19 0 10 -49 -14 -77 -23 -26 -29 -28 -99 -28 -67 0
-79 3 -102 25 -38 34 -55 80 -55 142 1 68 29 132 72 158 35 21 130 28 158 10z
m823 -110 c30 -24 44 -74 27 -95 -9 -10 -33 -15 -76 -15 -63 0 -64 0 -64 -28
0 -41 26 -72 61 -72 23 0 34 7 50 35 12 19 25 32 30 29 16 -9 10 -25 -20 -55
-25 -24 -38 -29 -78 -29 -55 0 -86 17 -108 60 -30 58 -8 147 44 175 39 21 104
19 134 -5z m-4358 -226 c305 -44 473 -102 566 -195 37 -37 39 -42 39 -100 0
-54 2 -60 18 -54 107 45 121 49 204 49 72 1 91 -2 115 -20 53 -39 65 -76 61
-200 l-4 -110 -58 -117 c-88 -176 -159 -247 -249 -247 -44 0 -93 26 -190 103
l-29 22 -94 -100 c-52 -55 -108 -117 -125 -137 l-30 -37 58 -16 c189 -52 258
-85 269 -130 8 -32 -7 -50 -67 -80 -138 -71 -319 -88 -874 -83 -378 3 -380 3
-491 31 -187 47 -200 79 -22 52 149 -22 585 -31 775 -16 207 16 403 70 411
113 4 22 -72 78 -106 78 -13 0 -59 -16 -101 -35 -126 -57 -189 -69 -341 -69
-118 1 -145 4 -216 28 -149 48 -304 169 -427 331 -85 114 -155 266 -119 265 4
-1 31 -39 61 -85 243 -379 597 -491 928 -294 73 44 198 167 253 248 45 67 134
247 145 294 9 33 7 33 -93 8 -142 -36 -239 -44 -512 -44 -289 0 -408 13 -568
59 -147 43 -279 119 -271 156 4 14 22 10 134 -27 163 -55 257 -65 574 -64 228
2 231 2 106 10 -361 22 -493 40 -563 77 -60 31 -52 43 20 34 35 -4 128 -7 208
-7 132 0 149 2 188 23 47 25 63 49 41 63 -24 15 -113 39 -198 53 -82 13 -100
20 -87 34 4 4 150 7 324 7 261 0 330 -3 390 -17 85 -20 184 -62 208 -89 30
-34 9 -69 -66 -107 -88 -45 -28 -33 68 14 50 24 80 46 93 67 24 41 24 40 -11
80 -60 68 -181 103 -515 147 -126 17 -239 34 -250 37 -73 25 244 22 420 -3z
m4209 -250 c28 -11 18 -64 -36 -175 -47 -100 -78 -136 -78 -91 0 39 21 189 31
220 13 40 48 59 83 46z m-1343 -64 c37 -20 61 -93 114 -349 61 -288 60 -288
88 -318 38 -42 92 -22 104 38 3 16 12 29 19 29 29 0 8 -116 -27 -151 -12 -12
-33 -19 -58 -19 -67 0 -89 43 -132 261 -14 69 -25 105 -30 97 -5 -7 -41 -88
-81 -180 l-73 -168 -47 0 -47 0 18 43 c10 23 60 136 111 252 82 187 91 215 86
252 -19 139 -112 189 -153 83 -28 -70 -45 -38 -23 42 22 78 78 116 131 88z
m618 -11 c36 -34 47 -71 105 -348 30 -143 62 -273 70 -289 26 -50 73 -57 105
-16 12 15 21 35 21 45 0 11 5 19 11 19 8 0 10 -20 7 -60 -5 -75 -33 -110 -88
-110 -67 0 -90 43 -130 243 -13 64 -27 117 -30 117 -3 0 -40 -78 -81 -172
l-75 -173 -47 -3 c-26 -2 -47 -1 -47 1 0 2 50 116 111 253 121 273 121 276 79
371 -25 58 -60 74 -98 46 -15 -11 -31 -34 -36 -52 -11 -38 -26 -41 -26 -3 0
116 85 190 149 131z m1425 -4 c43 -21 61 -52 52 -89 -11 -43 -50 -34 -112 24
-46 43 -58 50 -94 50 -43 0 -90 -33 -90 -63 0 -26 41 -67 131 -128 169 -116
223 -207 201 -338 -21 -126 -103 -211 -210 -219 -130 -9 -215 82 -214 230 0
112 47 183 152 231 25 12 46 22 48 23 2 1 -28 33 -66 71 -77 76 -91 111 -67
169 8 19 15 34 17 34 2 0 21 7 43 15 51 20 157 14 209 -10z m-2374 -95 c0 -44
-3 -80 -8 -80 -4 0 -15 22 -24 48 -23 64 -43 72 -178 72 l-110 0 0 -146 0
-147 100 5 c113 6 135 17 146 74 13 72 24 29 24 -96 0 -127 -12 -170 -26 -95
-11 60 -42 75 -151 75 l-94 0 3 -150 c2 -120 6 -153 18 -161 8 -5 63 -8 122
-7 124 3 147 15 188 91 14 26 31 47 38 47 16 0 16 1 -14 -96 l-26 -84 -259 0
c-166 0 -259 4 -259 10 0 6 11 10 24 10 13 0 34 9 47 19 24 19 24 21 27 267 5
360 -2 404 -69 404 -16 0 -29 5 -29 10 0 6 92 10 255 10 l255 0 0 -80z m1652
-158 c34 -23 64 -61 85 -109 l16 -38 20 78 19 77 43 0 43 0 -42 -165 c-38
-149 -41 -169 -31 -209 14 -56 31 -76 61 -76 18 0 29 9 41 35 23 47 37 44 30
-7 -16 -123 -124 -130 -158 -11 l-12 45 -19 -35 c-10 -20 -34 -49 -55 -64 -32
-25 -45 -28 -108 -28 -61 0 -78 4 -112 27 -120 79 -130 345 -16 449 15 15 37
31 48 37 32 18 116 14 147 -6z m1200 -7 c23 -15 47 -46 64 -82 l28 -57 19 77
19 77 45 0 c41 0 44 -1 37 -22 -4 -13 -23 -87 -44 -165 -32 -128 -35 -147 -25
-187 14 -56 31 -76 61 -76 18 0 29 9 41 35 23 47 37 44 30 -7 -16 -120 -122
-131 -157 -15 -11 38 -14 40 -24 22 -23 -42 -86 -94 -122 -101 -97 -18 -185
22 -225 103 -21 42 -24 62 -24 158 0 94 3 116 22 150 22 41 62 84 98 103 37
21 117 14 157 -13z"/>
<path d="M6658 5703 c-17 -4 -38 -51 -38 -85 0 -16 6 -19 37 -16 35 3 38 6 44
41 4 27 2 43 -8 53 -8 8 -15 13 -16 13 -1 -1 -10 -3 -19 -6z"/>
<path d="M6356 5464 c-20 -19 -20 -45 -1 -70 15 -19 15 -19 35 5 27 31 27 81
1 81 -11 0 -27 -7 -35 -16z"/>
<path d="M6920 5565 c-19 -50 -13 -65 24 -65 39 0 48 15 37 57 -10 39 -47 44
-61 8z"/>
<path d="M2740 4980 c-20 -6 -21 -8 -5 -8 11 0 29 3 40 8 25 11 -1 11 -35 0z"/>
<path d="M2673 4963 c9 -2 23 -2 30 0 6 3 -1 5 -18 5 -16 0 -22 -2 -12 -5z"/>
<path d="M2573 4953 c15 -2 37 -2 50 0 12 2 0 4 -28 4 -27 0 -38 -2 -22 -4z"/>
<path d="M3360 4911 c-86 -26 -114 -63 -140 -183 -12 -51 -11 -59 7 -90 25
-43 98 -98 130 -98 33 0 94 64 128 135 77 157 13 278 -125 236z"/>
<path d="M7435 4711 c-73 -33 -105 -93 -105 -193 0 -86 16 -136 56 -176 31
-31 39 -34 77 -29 53 7 91 49 108 119 21 90 -5 185 -74 270 l-22 27 -40 -18z"/>
<path d="M6737 4740 c-42 -33 -62 -101 -62 -215 0 -84 4 -107 23 -146 27 -55
68 -78 110 -63 35 12 85 96 107 179 15 55 16 71 5 110 -24 86 -86 155 -138
155 -10 0 -31 -9 -45 -20z"/>
<path d="M7920 4732 c-39 -39 -54 -99 -54 -212 0 -79 4 -103 22 -141 27 -55
68 -78 110 -63 35 12 85 96 107 179 15 55 16 71 5 110 -24 87 -86 155 -140
155 -12 0 -34 -13 -50 -28z"/>
</g>
</svg>
